<svg width="630" height="800" viewBox="0 0 630 800" fill="none" xmlns="http://www.w3.org/2000/svg">
<path fill-rule="evenodd" clip-rule="evenodd" d="M115.12 342.857H343.691C406.72 342.857 457.977 291.6 457.977 228.571C457.977 165.543 406.72 114.286 343.691 114.286H115.12V342.857ZM115.12 685.714H400.834C463.863 685.714 515.12 634.457 515.12 571.429C515.12 508.4 463.863 457.143 400.834 457.143H115.12V685.714ZM400.834 800H0.833984V0H343.691C469.748 0 572.263 102.514 572.263 228.571C572.263 284.514 552.034 335.829 518.605 375.543C584.948 415.6 629.405 488.457 629.405 571.429C629.405 697.486 526.891 800 400.834 800Z" fill="#393939"/>
</svg>
