<svg width="798" height="800" viewBox="0 0 798 800" fill="none" xmlns="http://www.w3.org/2000/svg">
<path d="M650 725C673.4 614.65 699.25 522.5 730.2 432.7C750.75 522.5 776.6 614.6 797.05 708.75C800 766.4 766.45 800 725 800C683.55 800 650 766.4 650 725Z" fill="#444444"/>
<path d="M400 50.0001L328 122L228 22.0001C214.2 8.9001 195.55 0.850098 175 0.850098C154.45 0.850098 135.8 8.9001 121.95 22.0001C108.45 35.5501 100.05 54.2501 100.05 74.9501C100.05 95.6501 108.45 114.4 122 127.95L222 227.95L0 449.95L350 799.95L750 399.95L400 50.0001ZM400 120.5L679.5 400H120.5L258 262.5C261.55 264.6 265.8 265.85 270.35 265.85C283.9 265.85 294.85 254.9 294.85 241.35C294.85 236.8 293.6 232.55 291.45 228.9L327.5 193L404.5 269.5C409.05 274.05 415.3 276.85 422.25 276.85C436.1 276.85 447.35 265.6 447.35 251.75C447.35 244.8 444.55 238.55 440 234L363.5 157.5L400 120.5ZM157.5 92.5001C152.95 87.9501 150.1 81.7001 150.1 74.7501C150.1 67.8001 152.95 61.5501 157.5 57.0001C162.1 52.5501 168.35 49.8001 175.25 49.8001C182.15 49.8001 188.4 52.5501 193 57.0001L293 157L257.5 192.5L157.5 92.5001Z" fill="#444444"/>
</svg>
