<svg width="727" height="801" viewBox="0 0 727 801" fill="none" xmlns="http://www.w3.org/2000/svg">
<path fill-rule="evenodd" clip-rule="evenodd" d="M254.45 0.641188H471.707C472.259 0.628429 472.812 0.628357 473.368 0.641188H690.65C710.726 0.641188 727 16.9154 727 36.9912C727 57.0666 710.726 73.3412 690.65 73.3412H499.594H423.696H254.45C234.375 73.3412 218.1 57.0666 218.1 36.9912C218.1 16.9154 234.375 0.641188 254.45 0.641188ZM227.404 727.641H36.35C16.2746 727.641 0 743.914 0 763.991C0 784.067 16.2746 800.341 36.35 800.341H253.633C254.189 800.355 254.743 800.355 255.295 800.341H472.55C492.626 800.341 508.9 784.067 508.9 763.991C508.9 743.914 492.626 727.641 472.55 727.641H303.304H227.404Z" fill="#393939"/>
<path opacity="0.5" d="M423.692 73.3406L227.4 727.641H303.301L499.591 73.3406H423.692Z" fill="#393939"/>
</svg>
