<svg width="467" height="768" viewBox="0 0 467 768" fill="none" xmlns="http://www.w3.org/2000/svg">
<path fill-rule="evenodd" clip-rule="evenodd" d="M275.095 153.599C317.488 153.599 351.852 119.215 351.852 76.7994C351.852 34.3842 317.488 0 275.095 0C232.706 0 198.338 34.3842 198.338 76.7994C198.338 119.215 232.706 153.599 275.095 153.599ZM200.365 176.852C213.079 170.492 228.27 171.684 239.837 179.951L278.215 207.38C290.424 216.106 296.43 231.15 293.594 245.892L253.342 454.921L422.166 708.294C433.921 725.938 429.158 749.781 411.52 761.546C393.885 773.308 370.055 768.539 358.3 750.894L180.745 484.42L149.448 437.445C143.97 429.224 141.87 419.206 143.587 409.471L166.48 279.668L97.9644 313.944L76.0187 423.679C71.8597 444.476 51.6395 457.958 30.8556 453.8C10.0717 449.637 -3.40533 429.404 0.753374 408.611L26.3818 280.463C28.7053 268.845 36.2593 258.951 46.851 253.652L200.365 176.852ZM416.474 420.427L306.155 383.632L320.8 307.566L440.749 347.567C460.855 354.275 471.724 376.021 465.019 396.139C458.318 416.26 436.585 427.135 416.474 420.427ZM11.3746 710.767L136.793 487.68L148.814 505.72L184.56 559.364L78.2742 748.421C67.8829 766.903 44.4827 773.458 26.0092 763.063C7.53525 752.665 0.983264 729.252 11.3746 710.767Z" fill="#393939"/>
</svg>
