<?xml version="1.0" encoding="iso-8859-1"?>
<!-- Uploaded to: SVG Repo, www.svgrepo.com, Generator: SVG Repo Mixer Tools -->
<svg height="800px" width="800px" version="1.1" id="Layer_1" xmlns="http://www.w3.org/2000/svg" xmlns:xlink="http://www.w3.org/1999/xlink" 
	 viewBox="0 0 420 420" xml:space="preserve">
<g id="XMLID_129_">
	<circle id="XMLID_130_" style="fill:#F6E27D;" cx="210" cy="210" r="210"/>
	<path id="XMLID_131_" style="fill:#F5DC60;" d="M50,210c0-78.578,27.418-147.938,69.245-189.427C48.705,54.431,0,126.526,0,210
		s48.705,155.57,119.245,189.427C77.419,357.939,50,288.578,50,210z"/>
	<path id="XMLID_132_" style="fill:#F8E99B;" d="M300.756,20.574C342.582,62.063,370,131.423,370,210
		s-27.418,147.938-69.244,189.426C371.295,365.569,420,293.474,420,210S371.295,54.432,300.756,20.574z"/>
	<path id="XMLID_133_" style="fill:#FFFFFF;" d="M161.011,59.998C148.045,98.113,140,151.238,140,210c0,115.98,31.34,210,70,210
		s70-94.02,70-210c0-58.762-8.045-111.887-21.011-150.002"/>
	<ellipse id="XMLID_134_" style="fill:#F1CB30;" cx="210.001" cy="35" rx="70" ry="35"/>
</g>
</svg>